<mxfile host="app.diagrams.net" agent="Mozilla/5.0 (Windows NT 10.0; Win64; x64) AppleWebKit/537.36 (KHTML, like Gecko) Chrome/131.0.0.0 Safari/537.36 Edg/131.0.0.0" version="24.8.6">
  <diagram name="第 1 页" id="xeP-Gfb6wr2b7-4Ma4Fg">
    <mxGraphModel dx="1442" dy="1415" grid="0" gridSize="10" guides="1" tooltips="1" connect="1" arrows="1" fold="1" page="0" pageScale="1" pageWidth="827" pageHeight="1169" math="0" shadow="0">
      <root>
        <mxCell id="0" />
        <mxCell id="1" parent="0" />
        <mxCell id="wXci1mIZKQHQg_v51f_E-28" value="" style="edgeStyle=none;curved=1;rounded=0;orthogonalLoop=1;jettySize=auto;html=1;fontSize=12;startSize=8;endSize=8;" edge="1" parent="1" source="wXci1mIZKQHQg_v51f_E-26" target="wXci1mIZKQHQg_v51f_E-27">
          <mxGeometry relative="1" as="geometry" />
        </mxCell>
        <mxCell id="wXci1mIZKQHQg_v51f_E-26" value="effect() 函数执行" style="rounded=0;whiteSpace=wrap;html=1;fillColor=#dae8fc;strokeColor=#6c8ebf;" vertex="1" parent="1">
          <mxGeometry x="-176" y="-532" width="120" height="60" as="geometry" />
        </mxCell>
        <mxCell id="wXci1mIZKQHQg_v51f_E-30" value="" style="edgeStyle=none;curved=1;rounded=0;orthogonalLoop=1;jettySize=auto;html=1;fontSize=12;startSize=8;endSize=8;" edge="1" parent="1" source="wXci1mIZKQHQg_v51f_E-27" target="wXci1mIZKQHQg_v51f_E-29">
          <mxGeometry relative="1" as="geometry" />
        </mxCell>
        <mxCell id="wXci1mIZKQHQg_v51f_E-40" value="存储effct函数" style="edgeLabel;html=1;align=center;verticalAlign=middle;resizable=0;points=[];fontSize=12;" vertex="1" connectable="0" parent="wXci1mIZKQHQg_v51f_E-30">
          <mxGeometry x="0.2091" relative="1" as="geometry">
            <mxPoint as="offset" />
          </mxGeometry>
        </mxCell>
        <mxCell id="wXci1mIZKQHQg_v51f_E-27" value="触发get操作" style="whiteSpace=wrap;html=1;rounded=0;fillColor=#f8cecc;strokeColor=#b85450;" vertex="1" parent="1">
          <mxGeometry x="-176" y="-397" width="120" height="60" as="geometry" />
        </mxCell>
        <mxCell id="wXci1mIZKQHQg_v51f_E-41" style="edgeStyle=none;curved=1;rounded=0;orthogonalLoop=1;jettySize=auto;html=1;fontSize=12;startSize=8;endSize=8;strokeColor=#3399FF;" edge="1" parent="1" source="wXci1mIZKQHQg_v51f_E-29">
          <mxGeometry relative="1" as="geometry">
            <mxPoint x="-49.199951171875" y="-490.59999084472656" as="targetPoint" />
          </mxGeometry>
        </mxCell>
        <mxCell id="wXci1mIZKQHQg_v51f_E-29" value="effect()" style="shape=cylinder3;whiteSpace=wrap;html=1;boundedLbl=1;backgroundOutline=1;size=15;fillColor=#e1d5e7;strokeColor=#9673a6;" vertex="1" parent="1">
          <mxGeometry x="90" y="-407" width="60" height="80" as="geometry" />
        </mxCell>
        <mxCell id="wXci1mIZKQHQg_v51f_E-33" value="" style="edgeStyle=none;curved=1;rounded=0;orthogonalLoop=1;jettySize=auto;html=1;fontSize=12;startSize=8;endSize=8;strokeColor=#3399ff;" edge="1" parent="1" source="wXci1mIZKQHQg_v51f_E-31" target="wXci1mIZKQHQg_v51f_E-32">
          <mxGeometry relative="1" as="geometry" />
        </mxCell>
        <mxCell id="wXci1mIZKQHQg_v51f_E-31" value="响应式数据改变" style="rounded=0;whiteSpace=wrap;html=1;fillColor=#dae8fc;strokeColor=#6c8ebf;" vertex="1" parent="1">
          <mxGeometry x="318" y="-527" width="120" height="60" as="geometry" />
        </mxCell>
        <mxCell id="wXci1mIZKQHQg_v51f_E-39" value="" style="edgeStyle=none;curved=1;rounded=0;orthogonalLoop=1;jettySize=auto;html=1;fontSize=12;startSize=8;endSize=8;entryX=1;entryY=0.5;entryDx=0;entryDy=0;entryPerimeter=0;strokeColor=#3399ff;" edge="1" parent="1" source="wXci1mIZKQHQg_v51f_E-32" target="wXci1mIZKQHQg_v51f_E-29">
          <mxGeometry relative="1" as="geometry">
            <mxPoint x="154" y="-367" as="targetPoint" />
          </mxGeometry>
        </mxCell>
        <mxCell id="wXci1mIZKQHQg_v51f_E-44" value="取出effec函数执行" style="edgeLabel;html=1;align=center;verticalAlign=middle;resizable=0;points=[];fontSize=12;" vertex="1" connectable="0" parent="wXci1mIZKQHQg_v51f_E-39">
          <mxGeometry x="0.0032" relative="1" as="geometry">
            <mxPoint as="offset" />
          </mxGeometry>
        </mxCell>
        <mxCell id="wXci1mIZKQHQg_v51f_E-32" value="触发set操作" style="rounded=0;whiteSpace=wrap;html=1;fillColor=#f8cecc;strokeColor=#b85450;" vertex="1" parent="1">
          <mxGeometry x="321" y="-394" width="120" height="60" as="geometry" />
        </mxCell>
      </root>
    </mxGraphModel>
  </diagram>
</mxfile>
